<svg xmlns="http://www.w3.org/2000/svg" version="1.1" xmlns:xlink="http://www.w3.org/1999/xlink" xmlns:svgjs="http://svgjs.dev/svgjs" width="1500" height="1500" viewBox="0 0 1500 1500"><rect width="1500" height="1500" fill="#f9f7f4"></rect><g transform="matrix(0.6666666666666666,0,0,0.6666666666666666,249.39393939393938,670.6394291063103)"><svg viewBox="0 0 396 63" data-background-color="#f9f7f4" preserveAspectRatio="xMidYMid meet" height="238" width="1500" xmlns="http://www.w3.org/2000/svg" xmlns:xlink="http://www.w3.org/1999/xlink"><g id="tight-bounds" transform="matrix(1,0,0,1,0.2400000000000091,0.010814913670856185)"><svg viewBox="0 0 395.52 62.978370172658266" height="62.978370172658266" width="395.52"><g><svg viewBox="0 0 395.52 62.978370172658266" height="62.978370172658266" width="395.52"><g><svg viewBox="0 0 395.52 62.978370172658266" height="62.978370172658266" width="395.52"><g id="textblocktransform"><svg viewBox="0 0 395.52 62.978370172658266" height="62.978370172658266" width="395.52" id="textblock"><g><svg viewBox="0 0 395.52 62.978370172658266" height="62.978370172658266" width="395.52"><g transform="matrix(1,0,0,1,0,0)"><svg width="395.52" viewBox="3.96 -36.23 292.67 46.61" height="62.978370172658266" data-palette-color="#ff5a00"><path d="M27.39 0L3.96 0 3.96-32.93 26.39-32.93 26.39-29.13 8.62-29.13 8.62-18.82 24.93-18.82 24.93-15.06 8.62-15.06 8.62-3.81 27.39-3.81 27.39 0ZM86.62-13.33L86.62-13.33Q86.62-6.4 84.14-2.95 81.66 0.49 77.05 0.49L77.05 0.49Q71.09 0.49 68.89-4L68.89-4 68.84-4Q68.84-2.83 68.76-1.56 68.67-0.29 68.62 0L68.62 0 64.37 0Q64.52-1.32 64.52-5.44L64.52-5.44 64.52-36.23 68.92-36.23 68.92-25.9Q68.92-24.32 68.82-22.07L68.82-22.07 68.92-22.07Q71.14-26.95 77.07-26.95L77.07-26.95Q86.62-26.95 86.62-13.33ZM82.08-13.18L82.08-13.18Q82.08-18.65 80.57-21.11 79.07-23.56 75.87-23.56L75.87-23.56Q72.24-23.56 70.58-20.89 68.92-18.21 68.92-12.79L68.92-12.79Q68.92-7.69 70.53-5.22 72.14-2.76 75.83-2.76L75.83-2.76Q79.12-2.76 80.6-5.31 82.08-7.86 82.08-13.18ZM116.79-13.23L116.79-13.23Q116.79-6.57 113.73-3.04 110.66 0.49 104.88 0.49L104.88 0.49Q99.21 0.49 96.2-3.08 93.18-6.64 93.18-13.23L93.18-13.23Q93.18-20.04 96.27-23.47 99.36-26.9 105.02-26.9L105.02-26.9Q110.98-26.9 113.88-23.51 116.79-20.12 116.79-13.23ZM112.18-13.23L112.18-13.23Q112.18-18.48 110.5-21.07 108.83-23.66 105.1-23.66L105.1-23.66Q101.31-23.66 99.55-21.02 97.8-18.38 97.8-13.23L97.8-13.23Q97.8-8.11 99.55-5.43 101.31-2.76 104.83-2.76L104.83-2.76Q108.71-2.76 110.44-5.37 112.18-7.98 112.18-13.23ZM146.79-13.23L146.79-13.23Q146.79-6.57 143.73-3.04 140.66 0.49 134.88 0.49L134.88 0.49Q129.21 0.49 126.2-3.08 123.18-6.64 123.18-13.23L123.18-13.23Q123.18-20.04 126.27-23.47 129.36-26.9 135.02-26.9L135.02-26.9Q140.98-26.9 143.89-23.51 146.79-20.12 146.79-13.23ZM142.18-13.23L142.18-13.23Q142.18-18.48 140.51-21.07 138.83-23.66 135.1-23.66L135.1-23.66Q131.31-23.66 129.56-21.02 127.8-18.38 127.8-13.23L127.8-13.23Q127.8-8.11 129.56-5.43 131.31-2.76 134.83-2.76L134.83-2.76Q138.71-2.76 140.44-5.37 142.18-7.98 142.18-13.23ZM177.48 0L172.33 0 163.39-12.18 160.17-9.79 160.17 0 155.77 0 155.77-36.23 160.17-36.23 160.17-13.6 171.76-26.42 176.92-26.42 166.2-15.06 177.48 0ZM240 0L235.26 0 231.89-9.33 218.15-9.33 214.8 0 210.02 0 222.47-32.93 227.77-32.93 240 0ZM226.47-25.17L225.06-29.42 224.76-28.47 223.08-23.29 219.39-12.96 230.7-12.96 226.47-25.17ZM266.63-13.33L266.63-13.33Q266.63 0.49 257.06 0.49L257.06 0.49Q251.05 0.49 248.98-4L248.98-4 248.86-4Q248.95-3.81 248.95 0.05L248.95 0.05 248.95 10.38 244.54 10.38 244.54-20.95Q244.54-25.1 244.39-26.42L244.39-26.42 248.66-26.42Q248.69-26.32 248.73-25.7 248.78-25.07 248.84-23.86 248.91-22.66 248.91-22.07L248.91-22.07 249-22.07Q250.22-24.63 252.12-25.79 254.01-26.95 257.06-26.95L257.06-26.95Q261.89-26.95 264.26-23.62 266.63-20.29 266.63-13.33ZM262.09-13.33L262.09-13.33Q262.09-18.85 260.6-21.2 259.11-23.56 255.91-23.56L255.91-23.56Q252.23-23.56 250.59-20.89 248.95-18.21 248.95-12.79L248.95-12.79Q248.95-7.59 250.59-5.18 252.23-2.76 255.86-2.76L255.86-2.76Q259.11-2.76 260.6-5.22 262.09-7.69 262.09-13.33ZM296.63-13.33L296.63-13.33Q296.63 0.49 287.06 0.49L287.06 0.49Q281.06 0.49 278.98-4L278.98-4 278.86-4Q278.96-3.81 278.96 0.05L278.96 0.05 278.96 10.38 274.54 10.38 274.54-20.95Q274.54-25.1 274.39-26.42L274.39-26.42 278.66-26.42Q278.69-26.32 278.74-25.7 278.79-25.07 278.85-23.86 278.91-22.66 278.91-22.07L278.91-22.07 279.01-22.07Q280.23-24.63 282.12-25.79 284.01-26.95 287.06-26.95L287.06-26.95Q291.9-26.95 294.26-23.62 296.63-20.29 296.63-13.33ZM292.09-13.33L292.09-13.33Q292.09-18.85 290.6-21.2 289.11-23.56 285.92-23.56L285.92-23.56Q282.23-23.56 280.59-20.89 278.96-18.21 278.96-12.79L278.96-12.79Q278.96-7.59 280.59-5.18 282.23-2.76 285.87-2.76L285.87-2.76Q289.11-2.76 290.6-5.22 292.09-7.69 292.09-13.33Z" opacity="1" transform="matrix(1,0,0,1,0,0)" fill="#ff5a00" class="wordmark-text-0" data-fill-palette-color="primary" id="text-0"></path></svg></g></svg></g></svg></g></svg></g><g></g></svg></g><defs></defs></svg><rect width="395.52" height="62.978370172658266" fill="none" stroke="none" visibility="hidden"></rect></g></svg></g></svg>